<?xml version="1.0" encoding="UTF-8"?>
<svg id="Capa_1" xmlns="http://www.w3.org/2000/svg" version="1.1" viewBox="0 0 50.11 49.53">
  <!-- Generator: Adobe Illustrator 29.5.1, SVG Export Plug-In . SVG Version: 2.1.0 Build 141)  -->
  <defs>
    <style>
      .st0 {
        fill: #f2d7b6;
      }
    </style>
  </defs>
  <path class="st0" d="M35.17,17.1c-.23-.6-.51-1.03-.97-1.49s-.88-.73-1.49-.97c-.45-.18-1.14-.39-2.41-.45-1.37-.07-1.78-.08-5.25-.08s-3.88.02-5.25.08c-1.26.06-1.95.27-2.41.45-.61.23-1.04.51-1.5.97-.45.45-.73.88-.97,1.49-.18.45-.39,1.14-.45,2.41-.07,1.37-.08,1.78-.08,5.25s.02,3.88.08,5.25c.06,1.26.27,1.95.45,2.41.23.61.52,1.04.97,1.5.46.45.89.73,1.5.97.45.18,1.14.39,2.41.45,1.37.07,1.78.08,5.25.08s3.88-.02,5.25-.08c1.26-.06,1.95-.27,2.41-.45.6-.23,1.04-.51,1.49-.97.45-.46.73-.89.97-1.5.18-.45.39-1.14.45-2.41.07-1.37.08-1.78.08-5.25s-.02-3.88-.08-5.25c-.06-1.26-.27-1.95-.45-2.41ZM25.05,31.45c-3.69,0-6.68-2.99-6.68-6.68s2.99-6.68,6.68-6.68,6.68,2.99,6.68,6.68-2.99,6.68-6.68,6.68ZM31.99,19.39c-.86,0-1.56-.7-1.56-1.56s.7-1.56,1.56-1.56,1.56.7,1.56,1.56-.7,1.56-1.56,1.56Z"/>
  <circle class="st0" cx="25.05" cy="24.77" r="4.33"/>
  <path class="st0" d="M40.3,1.05H9.81C5.13,1.05,1.34,4.84,1.34,9.52v30.49c0,4.68,3.79,8.47,8.47,8.47h30.49c4.68,0,8.47-3.79,8.47-8.47V9.52c0-4.68-3.79-8.47-8.47-8.47ZM37.97,30.12c-.06,1.39-.28,2.33-.6,3.16-.33.85-.78,1.58-1.5,2.3-.72.72-1.44,1.17-2.3,1.5-.83.32-1.78.54-3.16.6-1.39.07-1.83.08-5.36.08s-3.97-.02-5.36-.08-2.33-.28-3.16-.6c-.85-.33-1.58-.78-2.3-1.5s-1.17-1.45-1.5-2.3c-.32-.83-.54-1.78-.6-3.16-.07-1.39-.08-1.83-.08-5.36s.02-3.97.08-5.36.28-2.33.6-3.16c.33-.85.78-1.58,1.5-2.3.72-.72,1.44-1.17,2.3-1.5.83-.32,1.78-.54,3.16-.6,1.39-.06,1.83-.08,5.36-.08s3.97.02,5.36.08c1.39.06,2.33.28,3.16.6.85.33,1.58.78,2.3,1.5s1.17,1.45,1.5,2.3c.32.83.54,1.78.6,3.16.07,1.39.08,1.83.08,5.36s-.02,3.97-.08,5.36Z"/>
</svg>