<?xml version="1.0" encoding="UTF-8"?>
<svg id="Text" xmlns="http://www.w3.org/2000/svg" version="1.1" viewBox="0 0 263.15 90.89">
  <!-- Generator: Adobe Illustrator 29.5.1, SVG Export Plug-In . SVG Version: 2.1.0 Build 141)  -->
  <defs>
    <style>
      .st0 {
        fill: #f2d7b6;
      }
    </style>
  </defs>
  <g>
    <path class="st0" d="M126.22,50.55c-1.59,1.03-3.68,1.55-6.27,1.55h-1.84v7.7h-5.26v-18.71h7.53c5.48,0,8.21,1.79,8.21,5.37,0,1.7-.79,3.06-2.38,4.09h0ZM122.29,44.32c-.6-.4-1.66-.6-3.17-.6h-1.01v5.75h1.05c1.25,0,2.23-.28,2.95-.83.72-.55,1.08-1.3,1.08-2.24,0-.99-.3-1.69-.9-2.09h0Z"/>
    <path class="st0" d="M142.47,59.8v-18.71h4.97v18.71h-4.97Z"/>
    <path class="st0" d="M178.64,59.8l-1.98-4.64h-8.57l-2.05,4.64h-5.37l8.79-18.71h6.09l8.68,18.71h-5.59ZM172.44,44.94l-3.13,7.43h6.12l-2.99-7.43h0Z"/>
    <path class="st0" d="M212.29,59.8l-10.2-13.53v13.53h-4.76v-18.71h6.31l9.37,12.33v-12.33h4.86v18.71s-5.58,0-5.58,0Z"/>
    <path class="st0" d="M251.02,57.68c-1.71,1.63-4.35,2.44-7.93,2.44s-6.28-.78-7.94-2.35c-1.67-1.56-2.51-4.04-2.51-7.44s.88-5.87,2.63-7.37,4.42-2.25,8-2.25c6.87,0,10.3,3.15,10.3,9.46,0,3.38-.85,5.88-2.56,7.51h0ZM246.82,45.2c-.76-1.08-2-1.61-3.73-1.61-.82,0-1.52.1-2.11.31-.59.21-1.09.57-1.49,1.1-.41.52-.72,1.24-.92,2.14-.2.9-.31,2.04-.31,3.42,0,2.31.39,4.01,1.17,5.1.78,1.08,2.01,1.63,3.69,1.63s2.91-.53,3.68-1.6c.77-1.07,1.15-2.79,1.15-5.18s-.38-4.22-1.13-5.3h0Z"/>
  </g>
  <g>
    <path class="st0" d="M219.89,70.76l.12.05c.34.13.62.25.85.35.23.1.44.23.63.38.2.15.36.34.48.55.12.22.18.47.18.75,0,.72-.32,1.27-.95,1.65s-1.52.57-2.67.57c-.53,0-1.03-.03-1.48-.1s-.85-.14-1.18-.21v-.95l.06.02c.37.09.76.18,1.18.25.42.08.84.12,1.28.12.72,0,1.3-.1,1.73-.29s.65-.49.65-.89c0-.28-.13-.5-.4-.68s-.62-.35-1.05-.52c-.12-.05-.23-.09-.31-.12l-.88-.35c-.08-.04-.18-.08-.29-.12-.61-.25-1.09-.5-1.42-.76s-.5-.63-.5-1.1c0-.61.29-1.08.87-1.42s1.4-.52,2.47-.52c.4,0,.76.02,1.08.06.33.04.67.09,1.02.15.07.01.13.02.18.03v.97c-.27-.07-.61-.15-1.02-.22-.41-.08-.83-.12-1.25-.12-.57,0-1.04.09-1.41.28s-.55.41-.55.68c0,.23.12.41.35.55.23.14.57.3,1.02.47.16.05.29.1.39.14l.82.37v-.02Z"/>
    <path class="st0" d="M228.93,75c-.45.05-.86.08-1.23.08-.97,0-1.66-.15-2.08-.45-.42-.3-.62-.78-.62-1.45v-4.73h-1.6v-.88h1.6v-1.71l1.39-.66v2.37h2.62v.88h-2.62v4.51c0,.14.02.28.05.42s.11.27.23.39.28.22.49.3.49.12.83.12c.18,0,.32,0,.43-.02.11-.02.25-.04.41-.08l.1-.03v.94h0Z"/>
    <path class="st0" d="M232.61,74.79c-.51-.19-.92-.46-1.24-.81s-.56-.75-.71-1.22c-.15-.46-.23-.96-.23-1.51s.08-1.06.23-1.52.38-.87.71-1.22.73-.62,1.24-.82c.5-.19,1.1-.29,1.8-.29s1.3.1,1.81.29c.51.2.93.47,1.26.82s.57.75.72,1.22c.15.46.23.97.23,1.52s-.08,1.06-.23,1.52-.39.86-.71,1.21c-.32.34-.74.61-1.26.8-.52.19-1.12.28-1.82.28s-1.3-.09-1.8-.28h0ZM232.64,73.42c.4.52.99.78,1.77.78s1.39-.26,1.8-.78.61-1.25.61-2.18-.2-1.66-.61-2.18-1.01-.78-1.8-.78-1.37.26-1.77.78c-.4.52-.6,1.25-.6,2.18s.2,1.66.6,2.18Z"/>
    <path class="st0" d="M240.98,67.58h1.39v1.42h.04c.1-.17.22-.34.36-.51.14-.16.34-.33.58-.49.25-.16.56-.3.95-.42.39-.11.84-.17,1.36-.17v1.12c-1.08,0-1.9.3-2.46.91-.56.61-.84,1.42-.84,2.43v3.03h-1.39v-7.33h.01Z"/>
    <path class="st0" d="M253.75,74.86c-.61.14-1.36.22-2.23.22-1.53,0-2.7-.35-3.52-1.04s-1.23-1.71-1.23-3.04c0-1.13.32-2.01.95-2.64.63-.63,1.59-.95,2.86-.95,1.1,0,1.95.26,2.53.77.58.51.87,1.19.87,2.02v.35h-5.61v.43c0,.32.05.66.16,1.02.11.36.29.71.55,1.05.26.34.62.62,1.08.83.46.22,1.01.32,1.67.32.4,0,.71-.01.93-.04s.47-.06.75-.12c.09-.02.18-.04.25-.05v.86h0ZM252.38,69.67c0-.13-.03-.28-.1-.44s-.17-.31-.32-.45-.34-.26-.58-.35c-.25-.09-.53-.14-.86-.14s-.64.05-.89.14-.46.21-.62.35c-.16.14-.28.29-.36.45-.08.15-.14.3-.18.45h3.91Z"/>
  </g>
  <path class="st0" d="M98.34,48.77c-.59-1.71-3.04-1.93-3.91-3.08-2.25-2.96-.34-7.51,1.07-10.57-13.46-.57-27.35-2.67-39.31-9.2-12.08-6.59-21.25-19.44-36.69-19.8l7.61,9.47-5.74,20.39-5.87.14c6.16,7.55-1.92,10.01-2.84,12.65-.82,2.34.23,6.17-.19,8.78,12.95.62,8.32,16.72,8.07,25.21-.1,3.43,3.83,6.17,4.85,2.7-.69-7.16-1.78-16.69.31-23.64.88-2.94,4.67-3.52,7.25-3.75,11.26-1.02,33.84-1.03,45.09,0,2.71.25,5.44.42,6.72,3.28.71,1.58,1.73,10.04,1.78,12.22.07,3.19-1.45,10.22-.94,11.89.69,2.24,4.19,1.39,4.81.55,1.21-1.64-6.51-31.09,8.08-27.9-.38-2.74.68-6.89-.16-9.34h.01ZM29,17.13c7.8,6.56,15.72,11.11,25.25,14.74,3.35,1.27,8.26,1.18,10.26,4.24H27c-.19,0-3.54-1.22-3.57-1.57l5.56-17.41h.01ZM90.5,54.11H20.5v-1.49l1.5-1.51h68.5v3Z"/>
  <rect class="st0" x="110.73" y="71.97" width="101.31" height=".52"/>
</svg>