<?xml version="1.0" encoding="UTF-8"?>
<svg id="Capa_1" xmlns="http://www.w3.org/2000/svg" version="1.1" viewBox="0 0 50.11 49.53">
  <!-- Generator: Adobe Illustrator 29.5.1, SVG Export Plug-In . SVG Version: 2.1.0 Build 141)  -->
  <defs>
    <style>
      .st0 {
        fill: #f2d7b6;
      }
    </style>
  </defs>
  <polygon class="st0" points="25.29 35.09 25.28 35.09 25.28 35.09 25.29 35.09"/>
  <path class="st0" d="M25.28,13.79c-5.56,0-10.15,4.23-10.68,9.62-.03.34-.05.68-.05,1.03,0,2.33.75,4.49,2.04,6.25l-1.34,3.96,4.13-1.32c1.7,1.11,3.73,1.76,5.9,1.76,5.92,0,10.74-4.77,10.74-10.65,0-.28-.02-.55-.04-.83-.43-5.49-5.14-9.82-10.7-9.82ZM31.54,28.83c-.26.73-1.54,1.43-2.11,1.48-.57.05-.57.47-3.76-.77-3.18-1.25-5.18-4.49-5.34-4.69-.12-.15-.8-1.06-1.12-2.15-.09-.34-.16-.7-.16-1.06,0-1.53.8-2.28,1.09-2.59.29-.31.63-.39.84-.39s.41.03.6.03.45-.11.71.51c.26.62.89,2.15.97,2.31.07.15.13.33.02.54-.07.15-.13.26-.2.37-.03.05-.07.1-.11.15-.16.18-.33.4-.47.54-.16.15-.32.32-.14.63s.81,1.33,1.74,2.15c1.2,1.06,2.21,1.38,2.52,1.54.32.15.49.13.68-.08.18-.2.78-.9.99-1.21.21-.32.42-.27.71-.16.29.1,1.82.85,2.14,1.01h-.01c.31.16.52.23.6.36.07.13.07.76-.19,1.48Z"/>
  <path class="st0" d="M40.3,1.05H9.81C5.13,1.05,1.34,4.84,1.34,9.52v30.49c0,4.68,3.79,8.47,8.47,8.47h30.49c4.68,0,8.47-3.79,8.47-8.47V9.52c0-4.68-3.79-8.47-8.47-8.47ZM38.06,24.44c0,7.01-5.71,12.68-12.77,12.68-2.24,0-4.34-.58-6.17-1.58l-7.07,2.25,2.3-6.8c-1.16-1.92-1.83-4.15-1.83-6.55,0-.19.01-.37.01-.56.3-6.75,5.82-12.12,12.76-12.12s12.59,5.5,12.76,12.35h.01v.33Z"/>
</svg>